ffmpeg version 2.8.3 Copyright (c) 2000-2015 the FFmpeg developers
  built with gcc 4.6 (Debian 4.6.3-14+rpi1)
  configuration: 
  libavutil      54. 31.100 / 54. 31.100
  libavcodec     56. 60.100 / 56. 60.100
  libavformat    56. 40.101 / 56. 40.101
  libavdevice    56.  4.100 / 56.  4.100
  libavfilter     5. 40.101 /  5. 40.101
  libswscale      3.  1.101 /  3.  1.101
  libswresample   1.  2.101 /  1.  2.101
[mjpeg @ 0x16e4230] Changeing bps to 8
Input #0, image2, from 'out1.jpg':
  Duration: 00:00:00.04, start: 0.000000, bitrate: 4366 kb/s
    Stream #0:0: Video: mjpeg, yuvj422p(pc, bt470bg/unknown/unknown), 640x480, 25 tbr, 25 tbn, 25 tbc
[swscaler @ 0x1703ad0] deprecated pixel format used, make sure you did set range correctly
Output #0, rawvideo, to 'tmp.yuv':
  Metadata:
    encoder         : Lavf56.40.101
    Stream #0:0: Video: rawvideo (I420 / 0x30323449), yuv420p, 640x480, q=2-31, 200 kb/s, 25 fps, 25 tbn, 25 tbc
    Metadata:
      encoder         : Lavc56.60.100 rawvideo
Stream mapping:
  Stream #0:0 -> #0:0 (mjpeg (native) -> rawvideo (native))
Press [q] to stop, [?] for help
frame=    1 fps=0.0 q=-0.0 Lsize=     450kB time=00:00:00.04 bitrate=92160.0kbits/s    
video:450kB audio:0kB subtitle:0kB other streams:0kB global headers:0kB muxing overhead: 0.000000%
